<svg width="40" height="40" viewBox="0 0 40 40" fill="none" xmlns="http://www.w3.org/2000/svg">
<path fill-rule="evenodd" clip-rule="evenodd" d="M0 20C0 8.95431 8.95431 0 20 0C31.0457 0 40 8.95431 40 20C40 31.0457 31.0457 40 20 40C17.9686 40 16.0079 39.6971 14.1606 39.1341L17.4633 37.1462C19.8292 35.7222 20.5928 32.6498 19.1687 30.2839C17.7447 27.918 14.6723 27.1544 12.3064 28.5785L4.85525 33.0633C4.41778 32.5566 4.00532 32.0277 3.61977 31.4785L17.4633 23.1461C19.8292 21.7221 20.5928 18.6497 19.1687 16.2838C17.7447 13.9179 14.6723 13.1543 12.3064 14.5784L0.0919457 21.9302C0.0311172 21.295 0 20.6511 0 20Z" fill="black"/>
</svg>
